<?xml version="1.0" encoding="utf-8"?>
<!-- Generator: Adobe Illustrator 23.1.1, SVG Export Plug-In . SVG Version: 6.00 Build 0)  -->
<svg version="1.1" id="Layer_1" xmlns="http://www.w3.org/2000/svg" xmlns:xlink="http://www.w3.org/1999/xlink" x="0px" y="0px"
	 viewBox="0 0 750 500" style="enable-background:new 0 0 750 500;" xml:space="preserve">
<style type="text/css">
	.st0{clip-path:url(#SVGID_2_);}
	.st1{opacity:0.7;}
	.st2{fill:none;stroke:#FFA90F;stroke-width:5.83;stroke-linecap:round;stroke-linejoin:round;}
	.st3{fill:none;stroke:#FFF99D;stroke-width:2.5;stroke-linecap:round;stroke-linejoin:round;}
	.st4{fill:none;stroke:#0077FF;stroke-width:5.83;stroke-linecap:round;stroke-linejoin:round;}
	.st5{fill:none;stroke:#87EEF6;stroke-width:2.5;stroke-linecap:round;stroke-linejoin:round;}
	.st6{fill:none;stroke:#FF00D2;stroke-width:5.83;stroke-linecap:round;stroke-linejoin:round;}
	.st7{fill:none;stroke:#FFA8FF;stroke-width:2.5;stroke-linecap:round;stroke-linejoin:round;}
	.st8{fill:url(#SVGID_3_);}
	.st9{fill:url(#SVGID_4_);}
	.st10{enable-background:new    ;}
	.st11{fill:#FFA90F;}
	.st12{fill:none;stroke:#FFA90F;stroke-width:2.5042;stroke-miterlimit:10.017;}
	.st13{fill:#FFF99D;}
	.st14{display:none;fill:#FFA90F;enable-background:new    ;}
	.st15{font-family:'Poppins-Medium';}
	.st16{font-size:26.1043px;}
	.st17{letter-spacing:2;}
	.st18{display:none;fill:none;stroke:#FFA90F;stroke-width:2.5042;stroke-miterlimit:10.017;enable-background:new    ;}
	.st19{display:none;fill:#FFF99D;enable-background:new    ;}
	.st20{fill:url(#SVGID_5_);}
	.st21{fill:url(#SVGID_6_);}
	.st22{fill:none;stroke:#FF00D2;stroke-width:5.8399;stroke-linecap:round;stroke-linejoin:round;stroke-miterlimit:4.0068;}
	.st23{fill:none;stroke:#FFA8FF;stroke-width:2.5042;stroke-linecap:round;stroke-linejoin:round;stroke-miterlimit:4.0068;}
	.st24{fill:url(#SVGID_7_);}
	.st25{fill:url(#SVGID_8_);}
	.st26{fill:url(#SVGID_9_);}
	.st27{fill:none;stroke:#864EFD;stroke-width:5.83;stroke-linecap:round;stroke-linejoin:round;}
	.st28{fill:none;stroke:#D9B8FF;stroke-width:2.5;stroke-linecap:round;stroke-linejoin:round;}
	.st29{fill:url(#SVGID_10_);}
	.st30{fill:url(#SVGID_11_);}
	.st31{fill:url(#SVGID_12_);}
	.st32{fill:url(#SVGID_13_);}
</style>
<title>logo</title>
<g>
	<g id="OBJECTS">
		<g>
			<defs>
				<rect id="SVGID_1_" width="750" height="500"/>
			</defs>
			<clipPath id="SVGID_2_">
				<use xlink:href="#SVGID_1_"  style="overflow:visible;"/>
			</clipPath>
			<g class="st0">
				<g class="st1">
					
						<image style="overflow:visible;enable-background:new    ;" width="602" height="441" xlink:href="6F280D45D00B09A2.png"  transform="matrix(1 0 0 1 69 61.73)">
					</image>
				</g>
				
					<image style="overflow:visible;enable-background:new    ;" width="93" height="94" xlink:href="6F280D45D00B09A6.png"  transform="matrix(1 0 0 1 538 346.73)">
				</image>
				<line class="st2" x1="580.1" y1="380.3" x2="588.8" y2="406.8"/>
				<line class="st2" x1="597.7" y1="389.2" x2="571.1" y2="397.9"/>
				
					<image style="overflow:visible;enable-background:new    ;" width="60" height="60" xlink:href="6F280D45D00B09A1.png"  transform="matrix(1 0 0 1 554 362.73)">
				</image>
				<line class="st3" x1="579.3" y1="379.5" x2="588" y2="406.1"/>
				<line class="st3" x1="596.9" y1="388.4" x2="570.4" y2="397.1"/>
				
					<image style="overflow:visible;enable-background:new    ;" width="75" height="75" xlink:href="6F280D45D00B09A3.png"  transform="matrix(1 0 0 1 509 335.73)">
				</image>
				<path class="st4" d="M550.5,373.1c0,2.3-1.9,4.1-4.1,4.1s-4.1-1.9-4.1-4.1c0-2.3,1.8-4.1,4.1-4.1
					C548.7,369,550.5,370.8,550.5,373.1z"/>
				
					<image style="overflow:visible;enable-background:new    ;" width="42" height="41" xlink:href="6F280D45D00B09A0.png"  transform="matrix(1 0 0 1 525 351.73)">
				</image>
				<circle class="st5" cx="545.6" cy="372.4" r="4.1"/>
				
					<image style="overflow:visible;enable-background:new    ;" width="90" height="90" xlink:href="6F280D45D00B09AE.png"  transform="matrix(1 0 0 1 574 298.73)">
				</image>
				<circle class="st6" cx="618.8" cy="343.7" r="11.9"/>
				
					<image style="overflow:visible;enable-background:new    ;" width="58" height="57" xlink:href="6F280D45D00B09A5.png"  transform="matrix(1 0 0 1 589 314.73)">
				</image>
				<circle class="st7" cx="618.1" cy="343.1" r="11.9"/>
				
					<image style="overflow:visible;enable-background:new    ;" width="75" height="75" xlink:href="6F280D45D00B09A7.png"  transform="matrix(1 0 0 1 536 393.73)">
				</image>
				<path class="st6" d="M577.3,430.9c0,2.3-1.8,4.1-4.1,4.1s-4.1-1.8-4.1-4.1c0-2.3,1.8-4.1,4.1-4.1c0,0,0,0,0,0
					C575.5,426.8,577.3,428.6,577.3,430.9C577.3,430.9,577.3,430.9,577.3,430.9z"/>
				
					<image style="overflow:visible;enable-background:new    ;" width="41" height="41" xlink:href="6F280D45D00B09A4.png"  transform="matrix(1 0 0 1 552 409.73)">
				</image>
				<path class="st7" d="M576.5,430.1c0,2.3-1.8,4.1-4.1,4.1s-4.1-1.8-4.1-4.1c0-2.3,1.8-4.1,4.1-4.1l0,0
					C574.7,426,576.5,427.9,576.5,430.1z"/>
				
					<radialGradient id="SVGID_3_" cx="621.1188" cy="170.2144" r="20.4434" gradientTransform="matrix(1 0 0 -1 -3.110267e-02 502.0099)" gradientUnits="userSpaceOnUse">
					<stop  offset="8.000000e-02" style="stop-color:#FFFFFF"/>
					<stop  offset="0.11" style="stop-color:#FDFAFF;stop-opacity:0.92"/>
					<stop  offset="0.21" style="stop-color:#FAEEFF;stop-opacity:0.7"/>
					<stop  offset="0.32" style="stop-color:#F6E3FF;stop-opacity:0.52"/>
					<stop  offset="0.42" style="stop-color:#F3DAFF;stop-opacity:0.36"/>
					<stop  offset="0.53" style="stop-color:#F1D2FF;stop-opacity:0.23"/>
					<stop  offset="0.64" style="stop-color:#EFCCFF;stop-opacity:0.13"/>
					<stop  offset="0.75" style="stop-color:#EEC8FF;stop-opacity:6.000000e-02"/>
					<stop  offset="0.87" style="stop-color:#EDC6FF;stop-opacity:1.000000e-02"/>
					<stop  offset="1" style="stop-color:#EDC5FF;stop-opacity:0"/>
				</radialGradient>
				<circle class="st8" cx="621.1" cy="331.8" r="20.5"/>
				
					<radialGradient id="SVGID_4_" cx="549.6055" cy="442.5516" r="20.4647" gradientTransform="matrix(1 0 0 -1 -2.558071e-02 502.0038)" gradientUnits="userSpaceOnUse">
					<stop  offset="8.000000e-02" style="stop-color:#FFFFFF"/>
					<stop  offset="0.11" style="stop-color:#FFFEF7;stop-opacity:0.92"/>
					<stop  offset="0.21" style="stop-color:#FFFDE2;stop-opacity:0.7"/>
					<stop  offset="0.32" style="stop-color:#FFFCD0;stop-opacity:0.52"/>
					<stop  offset="0.42" style="stop-color:#FFFBC0;stop-opacity:0.36"/>
					<stop  offset="0.53" style="stop-color:#FFFAB3;stop-opacity:0.23"/>
					<stop  offset="0.64" style="stop-color:#FFFAA9;stop-opacity:0.13"/>
					<stop  offset="0.75" style="stop-color:#FFF9A3;stop-opacity:6.000000e-02"/>
					<stop  offset="0.87" style="stop-color:#FFF99E;stop-opacity:1.000000e-02"/>
					<stop  offset="1" style="stop-color:#FFF99D;stop-opacity:0"/>
				</radialGradient>
				<circle class="st9" cx="549.6" cy="59.5" r="20.5"/>
				
					<image style="overflow:visible;enable-background:new    ;" width="256" height="148" xlink:href="10C9EB17119864B5.png"  transform="matrix(1 0 0 1 362 264.73)">
				</image>
				<g class="st10">
					<path class="st11" d="M408.5,363.7l-7,1.8l-4.5-17.6l6.7-1.7c3.7-1,6.2,0.6,6.9,3.1c0.5,2.1-0.4,3.7-1.9,4.8
						c2-0.2,4,1.3,4.5,3.4C413.7,360.1,412.1,362.7,408.5,363.7z M404,348.6l-3.6,0.9l1.3,5l3.6-0.9c1.9-0.5,2.8-1.7,2.4-3.3
						C407.2,348.8,405.8,348.1,404,348.6z M406.1,355.9l-3.8,1l1.4,5.5l3.9-1c1.9-0.5,2.9-1.8,2.4-3.5
						C409.6,356.1,408,355.4,406.1,355.9z"/>
					<path class="st11" d="M413.8,343.5l3.2-0.8l6.3,7.6l1.8-9.7l3.2-0.8l-2.9,12.7l1.6,6.4l-2.9,0.7l-1.6-6.4L413.8,343.5z"/>
					<path class="st11" d="M449,334.5l2.9-0.8l3.3,12.7c0.8,3.2-0.8,5.6-3.9,6.4c-3,0.8-5.7-0.6-6.5-3.7l2.9-0.7
						c0.4,1.5,1.4,2.3,2.9,1.9c1.5-0.4,2-1.6,1.6-3.1L449,334.5z"/>
					<path class="st11" d="M471.7,347.6c-5,1.3-9.9-1.4-11.3-6.7c-1.4-5.3,1.7-10,6.7-11.3c5-1.3,9.9,1.4,11.3,6.7
						C479.7,341.5,476.7,346.3,471.7,347.6z M471,345.1c3.5-0.9,5.4-4.1,4.3-8c-1-4-4.2-5.8-7.7-4.9c-3.5,0.9-5.4,4-4.4,8
						C464.3,344.1,467.5,346,471,345.1z"/>
					<path class="st11" d="M491.8,342.4c-3.5,0.9-6.7-0.3-7.5-3.4l3.1-0.8c0.5,1.4,1.8,2.3,3.8,1.8c2-0.5,2.9-1.9,2.5-3.4
						c-1.1-4.2-9.7,0.9-11.4-5.6c-0.8-3.1,1.2-5.6,4.8-6.6c3.4-0.9,6.2,0.3,7.2,3.2l-3.2,0.8c-0.4-1.2-1.7-2-3.6-1.6
						c-1.7,0.4-2.8,1.5-2.3,3.2c1,4,9.7-0.9,11.3,5.5C497.2,338.3,495.7,341.4,491.8,342.4z"/>
					<path class="st11" d="M509.5,321.4l-6.8,1.8l1.3,5.2l6.1-1.6l0.6,2.4l-6.1,1.6l1.4,5.4l6.8-1.8l0.6,2.4l-9.7,2.5l-4.5-17.6
						l9.7-2.5L509.5,321.4z"/>
					<path class="st11" d="M524.3,319.2c-0.3-1.3-1.2-1.8-2.3-1.5c-1.1,0.3-1.7,1.2-1.4,2.2c0.2,1,1,1.6,2.6,2.6l5.8,3.4l1-3.4
						l3.1-0.8l-1.3,4.5c-0.1,0.4-0.2,0.8-0.4,1.2l5.4,3.1l-3.8,1l-2.7-1.6c-1.3,2.1-3,3.4-5.4,4.1c-3.8,1-6.9-0.5-7.7-3.8
						c-0.6-2.4,0.2-4.7,2.7-6.6c-1.3-0.9-1.9-1.8-2.2-3c-0.6-2.3,0.8-4.5,3.8-5.3c3.1-0.8,5.2,0.7,5.6,3.2L524.3,319.2z M528,328.5
						l-5.9-3.5c-1.8,1.3-2.5,2.8-2.1,4.4c0.4,1.7,2.1,2.7,4.2,2.1C525.9,331.1,527.1,330.1,528,328.5z"/>
					<path class="st11" d="M536.7,311.9l2.9-0.7l4.5,17.6l-2.9,0.7L536.7,311.9z"/>
					<path class="st11" d="M552,307.9c4.2-1.1,6.8,0.8,7.6,3.7c0.5,2.1,0,4.6-2.8,6.1l6.2,6.2l-3.4,0.9l-5.9-6l-2.2,0.6l1.8,7
						l-2.9,0.7l-4.5-17.6L552,307.9z M552.6,310.3l-3.2,0.8l1.5,5.9l3.2-0.8c2.2-0.6,2.9-2.1,2.5-3.8
						C556.2,310.6,554.9,309.7,552.6,310.3z"/>
					<path class="st11" d="M574.8,304.5l-6.8,1.8l1.3,5.2l6.1-1.6l0.6,2.4l-6.1,1.6l1.4,5.4l6.8-1.8l0.6,2.4l-9.7,2.5l-4.5-17.6
						l9.7-2.5L574.8,304.5z"/>
				</g>
				<g class="st10">
					<path class="st12" d="M408.5,363.7l-7,1.8l-4.5-17.6l6.7-1.7c3.7-1,6.2,0.6,6.9,3.1c0.5,2.1-0.4,3.7-1.9,4.8
						c2-0.2,4,1.3,4.5,3.4C413.7,360.1,412.1,362.7,408.5,363.7z M404,348.6l-3.6,0.9l1.3,5l3.6-0.9c1.9-0.5,2.8-1.7,2.4-3.3
						C407.2,348.8,405.8,348.1,404,348.6z M406.1,355.9l-3.8,1l1.4,5.5l3.9-1c1.9-0.5,2.9-1.8,2.4-3.5
						C409.6,356.1,408,355.4,406.1,355.9z"/>
					<path class="st12" d="M413.8,343.5l3.2-0.8l6.3,7.6l1.8-9.7l3.2-0.8l-2.9,12.7l1.6,6.4l-2.9,0.7l-1.6-6.4L413.8,343.5z"/>
					<path class="st12" d="M449,334.5l2.9-0.8l3.3,12.7c0.8,3.2-0.8,5.6-3.9,6.4c-3,0.8-5.7-0.6-6.5-3.7l2.9-0.7
						c0.4,1.5,1.4,2.3,2.9,1.9c1.5-0.4,2-1.6,1.6-3.1L449,334.5z"/>
					<path class="st12" d="M471.7,347.6c-5,1.3-9.9-1.4-11.3-6.7c-1.4-5.3,1.7-10,6.7-11.3c5-1.3,9.9,1.4,11.3,6.7
						C479.7,341.5,476.7,346.3,471.7,347.6z M471,345.1c3.5-0.9,5.4-4.1,4.3-8c-1-4-4.2-5.8-7.7-4.9c-3.5,0.9-5.4,4-4.4,8
						C464.3,344.1,467.5,346,471,345.1z"/>
					<path class="st12" d="M491.8,342.4c-3.5,0.9-6.7-0.3-7.5-3.4l3.1-0.8c0.5,1.4,1.8,2.3,3.8,1.8c2-0.5,2.9-1.9,2.5-3.4
						c-1.1-4.2-9.7,0.9-11.4-5.6c-0.8-3.1,1.2-5.6,4.8-6.6c3.4-0.9,6.2,0.3,7.2,3.2l-3.2,0.8c-0.4-1.2-1.7-2-3.6-1.6
						c-1.7,0.4-2.8,1.5-2.3,3.2c1,4,9.7-0.9,11.3,5.5C497.2,338.3,495.7,341.4,491.8,342.4z"/>
					<path class="st12" d="M509.5,321.4l-6.8,1.8l1.3,5.2l6.1-1.6l0.6,2.4l-6.1,1.6l1.4,5.4l6.8-1.8l0.6,2.4l-9.7,2.5l-4.5-17.6
						l9.7-2.5L509.5,321.4z"/>
					<path class="st12" d="M524.3,319.2c-0.3-1.3-1.2-1.8-2.3-1.5c-1.1,0.3-1.7,1.2-1.4,2.2c0.2,1,1,1.6,2.6,2.6l5.8,3.4l1-3.4
						l3.1-0.8l-1.3,4.5c-0.1,0.4-0.2,0.8-0.4,1.2l5.4,3.1l-3.8,1l-2.7-1.6c-1.3,2.1-3,3.4-5.4,4.1c-3.8,1-6.9-0.5-7.7-3.8
						c-0.6-2.4,0.2-4.7,2.7-6.6c-1.3-0.9-1.9-1.8-2.2-3c-0.6-2.3,0.8-4.5,3.8-5.3c3.1-0.8,5.2,0.7,5.6,3.2L524.3,319.2z M528,328.5
						l-5.9-3.5c-1.8,1.3-2.5,2.8-2.1,4.4c0.4,1.7,2.1,2.7,4.2,2.1C525.9,331.1,527.1,330.1,528,328.5z"/>
					<path class="st12" d="M536.7,311.9l2.9-0.7l4.5,17.6l-2.9,0.7L536.7,311.9z"/>
					<path class="st12" d="M552,307.9c4.2-1.1,6.8,0.8,7.6,3.7c0.5,2.1,0,4.6-2.8,6.1l6.2,6.2l-3.4,0.9l-5.9-6l-2.2,0.6l1.8,7
						l-2.9,0.7l-4.5-17.6L552,307.9z M552.6,310.3l-3.2,0.8l1.5,5.9l3.2-0.8c2.2-0.6,2.9-2.1,2.5-3.8
						C556.2,310.6,554.9,309.7,552.6,310.3z"/>
					<path class="st12" d="M574.8,304.5l-6.8,1.8l1.3,5.2l6.1-1.6l0.6,2.4l-6.1,1.6l1.4,5.4l6.8-1.8l0.6,2.4l-9.7,2.5l-4.5-17.6
						l9.7-2.5L574.8,304.5z"/>
				</g>
				
					<image style="overflow:visible;enable-background:new    ;" width="223" height="115" xlink:href="10C9EB17119864CB.png"  transform="matrix(1 0 0 1 378 280.73)">
				</image>
				<g class="st10">
					<path class="st13" d="M407.6,362.8l-7,1.8l-4.5-17.6l6.7-1.7c3.7-1,6.2,0.6,6.9,3.1c0.5,2.1-0.4,3.7-1.9,4.8
						c2-0.2,4,1.3,4.5,3.4C412.9,359.2,411.2,361.9,407.6,362.8z M403.1,347.7l-3.6,0.9l1.3,5l3.6-0.9c1.9-0.5,2.8-1.7,2.4-3.3
						C406.4,347.9,405,347.2,403.1,347.7z M405.3,355l-3.8,1l1.4,5.5l3.9-1c1.9-0.5,2.9-1.8,2.4-3.5
						C408.8,355.3,407.2,354.5,405.3,355z"/>
					<path class="st13" d="M413,342.7l3.2-0.8l6.3,7.6l1.8-9.7l3.2-0.8l-2.9,12.7l1.6,6.4l-2.9,0.7l-1.6-6.4L413,342.7z"/>
					<path class="st13" d="M448.1,333.6l2.9-0.8l3.3,12.7c0.8,3.2-0.8,5.6-3.9,6.4c-3,0.8-5.7-0.6-6.5-3.7l2.9-0.8
						c0.4,1.5,1.4,2.3,2.9,1.9c1.5-0.4,2-1.6,1.6-3.1L448.1,333.6z"/>
					<path class="st13" d="M470.8,346.7c-5,1.3-9.9-1.4-11.3-6.7c-1.4-5.3,1.7-10,6.7-11.3c5-1.3,9.9,1.4,11.3,6.7
						C478.9,340.7,475.8,345.4,470.8,346.7z M470.2,344.2c3.5-0.9,5.4-4.1,4.3-8c-1-4-4.2-5.8-7.7-4.9c-3.5,0.9-5.4,4-4.4,8
						C463.5,343.2,466.7,345.1,470.2,344.2z"/>
					<path class="st13" d="M491,341.5c-3.5,0.9-6.7-0.3-7.5-3.4l3.1-0.8c0.5,1.4,1.8,2.3,3.8,1.8c2-0.5,2.9-1.9,2.5-3.4
						c-1.1-4.2-9.7,0.9-11.4-5.6c-0.8-3.1,1.2-5.6,4.8-6.6c3.4-0.9,6.2,0.3,7.2,3.2l-3.2,0.8c-0.4-1.2-1.7-2-3.6-1.6
						c-1.7,0.4-2.8,1.5-2.3,3.2c1,4,9.7-0.9,11.3,5.5C496.4,337.4,494.9,340.5,491,341.5z"/>
					<path class="st13" d="M508.7,320.5l-6.8,1.8l1.3,5.2l6.1-1.6l0.6,2.4l-6.1,1.6l1.4,5.4l6.8-1.8l0.6,2.4l-9.7,2.5l-4.5-17.6
						l9.7-2.5L508.7,320.5z"/>
					<path class="st13" d="M523.5,318.4c-0.3-1.3-1.2-1.8-2.3-1.5c-1.1,0.3-1.7,1.2-1.4,2.2c0.2,1,1,1.6,2.6,2.6l5.8,3.4l1-3.4
						l3.1-0.8l-1.3,4.5c-0.1,0.4-0.2,0.8-0.4,1.2l5.4,3.1l-3.8,1l-2.7-1.6c-1.3,2.1-3,3.4-5.4,4.1c-3.8,1-6.9-0.5-7.7-3.8
						c-0.6-2.4,0.2-4.7,2.7-6.6c-1.3-0.9-1.9-1.8-2.2-3c-0.6-2.3,0.8-4.5,3.8-5.3c3.1-0.8,5.2,0.7,5.6,3.2L523.5,318.4z
						 M527.1,327.6l-5.9-3.5c-1.8,1.3-2.5,2.8-2.1,4.4c0.4,1.7,2.1,2.7,4.2,2.1C525.1,330.2,526.3,329.2,527.1,327.6z"/>
					<path class="st13" d="M535.9,311l2.9-0.7l4.5,17.6l-2.9,0.7L535.9,311z"/>
					<path class="st13" d="M551.2,307c4.2-1.1,6.8,0.8,7.6,3.7c0.5,2.1,0,4.6-2.8,6.1l6.2,6.2l-3.4,0.9l-5.9-6l-2.2,0.6l1.8,7
						l-2.9,0.7l-4.5-17.6L551.2,307z M551.8,309.4l-3.2,0.8l1.5,5.9l3.2-0.8c2.2-0.6,2.9-2.1,2.5-3.8
						C555.4,309.7,554,308.8,551.8,309.4z"/>
					<path class="st13" d="M573.9,303.7l-6.8,1.8l1.3,5.2l6.1-1.6l0.6,2.4l-6.1,1.6l1.4,5.4l6.8-1.8l0.6,2.4l-9.7,2.5l-4.5-17.6
						l9.7-2.5L573.9,303.7z"/>
				</g>
				<text transform="matrix(0.9684 -0.2496 0.2496 0.9684 399.5402 365.9601)" class="st14 st15 st16 st17">BY JOSE&amp;IRE</text>
				<text transform="matrix(0.9684 -0.2496 0.2496 0.9684 399.5402 365.9601)" class="st18 st15 st16 st17">BY JOSE&amp;IRE</text>
				<text transform="matrix(0.9684 -0.2496 0.2496 0.9684 398.7204 365.0802)" class="st19 st15 st16 st17">BY JOSE&amp;IRE</text>
				
					<radialGradient id="SVGID_5_" cx="397.9195" cy="152.2514" r="20.4647" gradientTransform="matrix(1 0 0 -1 -2.891077e-02 502.0001)" gradientUnits="userSpaceOnUse">
					<stop  offset="8.000000e-02" style="stop-color:#FFFFFF"/>
					<stop  offset="0.11" style="stop-color:#FFFEF7;stop-opacity:0.92"/>
					<stop  offset="0.21" style="stop-color:#FFFDE2;stop-opacity:0.7"/>
					<stop  offset="0.32" style="stop-color:#FFFCD0;stop-opacity:0.52"/>
					<stop  offset="0.42" style="stop-color:#FFFBC0;stop-opacity:0.36"/>
					<stop  offset="0.53" style="stop-color:#FFFAB3;stop-opacity:0.23"/>
					<stop  offset="0.64" style="stop-color:#FFFAA9;stop-opacity:0.13"/>
					<stop  offset="0.75" style="stop-color:#FFF9A3;stop-opacity:6.000000e-02"/>
					<stop  offset="0.87" style="stop-color:#FFF99E;stop-opacity:1.000000e-02"/>
					<stop  offset="1" style="stop-color:#FFF99D;stop-opacity:0"/>
				</radialGradient>
				<circle class="st20" cx="397.9" cy="349.7" r="20.5"/>
				
					<image style="overflow:visible;enable-background:new    ;" width="93" height="94" xlink:href="10C9EB17119864CD.png"  transform="matrix(1 0 0 1 124 104.73)">
				</image>
				<line class="st2" x1="166.1" y1="138.4" x2="174.8" y2="165"/>
				<line class="st2" x1="183.7" y1="147.3" x2="157.1" y2="156"/>
				
					<image style="overflow:visible;enable-background:new    ;" width="60" height="60" xlink:href="10C9EB17119864CF.png"  transform="matrix(1 0 0 1 140 120.73)">
				</image>
				<line class="st3" x1="165.3" y1="137.6" x2="174" y2="164.2"/>
				<line class="st3" x1="183" y1="146.6" x2="156.4" y2="155.3"/>
				
					<image style="overflow:visible;enable-background:new    ;" width="91" height="91" xlink:href="10C9EB17119864CC.png"  transform="matrix(1 0 0 1 77 58.73)">
				</image>
				<circle class="st4" cx="122.2" cy="103.9" r="12.2"/>
				
					<image style="overflow:visible;enable-background:new    ;" width="57" height="58" xlink:href="10C9EB17119864D4.png"  transform="matrix(1 0 0 1 93 73.73)">
				</image>
				<circle class="st5" cx="121.5" cy="103.1" r="12.2"/>
				
					<image style="overflow:visible;enable-background:new    ;" width="75" height="75" xlink:href="10C9EB17119864D5.png"  transform="matrix(1 0 0 1 98 145.73)">
				</image>
				<path class="st4" d="M139.4,183.1c0,2.3-1.8,4.1-4.1,4.1c-2.3,0-4.1-1.8-4.1-4.1c0-2.3,1.8-4.1,4.1-4.1c0,0,0,0,0,0
					C137.5,179,139.4,180.8,139.4,183.1z"/>
				
					<image style="overflow:visible;enable-background:new    ;" width="41" height="41" xlink:href="10C9EB17119864D7.png"  transform="matrix(1 0 0 1 114 161.73)">
				</image>
				<circle class="st5" cx="134.5" cy="182.4" r="4.1"/>
				
					<image style="overflow:visible;enable-background:new    ;" width="75" height="75" xlink:href="10C9EB17119864D3.png"  transform="matrix(1 0 0 1 152 60.73)">
				</image>
				<circle class="st6" cx="189.1" cy="98.2" r="4.1"/>
				
					<image style="overflow:visible;enable-background:new    ;" width="42" height="42" xlink:href="10C9EB17119864DB.png"  transform="matrix(1 0 0 1 167 76.73)">
				</image>
				<path class="st7" d="M192.4,97.4c0,2.3-1.8,4.1-4.1,4.1c-2.3,0-4.1-1.8-4.1-4.1s1.8-4.1,4.1-4.1l0,0
					C190.6,93.3,192.4,95.1,192.4,97.4z"/>
				
					<radialGradient id="SVGID_6_" cx="156.5894" cy="346.816" r="20.4647" gradientTransform="matrix(1 0 0 -1 -7.255372e-03 501.9937)" gradientUnits="userSpaceOnUse">
					<stop  offset="8.000000e-02" style="stop-color:#FFFFFF"/>
					<stop  offset="0.11" style="stop-color:#FFFEF7;stop-opacity:0.92"/>
					<stop  offset="0.21" style="stop-color:#FFFDE2;stop-opacity:0.7"/>
					<stop  offset="0.32" style="stop-color:#FFFCD0;stop-opacity:0.52"/>
					<stop  offset="0.42" style="stop-color:#FFFBC0;stop-opacity:0.36"/>
					<stop  offset="0.53" style="stop-color:#FFFAB3;stop-opacity:0.23"/>
					<stop  offset="0.64" style="stop-color:#FFFAA9;stop-opacity:0.13"/>
					<stop  offset="0.75" style="stop-color:#FFF9A3;stop-opacity:6.000000e-02"/>
					<stop  offset="0.87" style="stop-color:#FFF99E;stop-opacity:1.000000e-02"/>
					<stop  offset="1" style="stop-color:#FFF99D;stop-opacity:0"/>
				</radialGradient>
				<circle class="st21" cx="156.6" cy="155.2" r="20.5"/>
				
					<image style="overflow:visible;enable-background:new    ;" width="344" height="272" xlink:href="10C9EB17119864F0.png"  transform="matrix(1 0 0 1 233 166.73)">
				</image>
				<g class="st10">
					<path class="st22" d="M344.4,324l15.3,14.9l-22.6,5.8l-8.3-9.7c-2,0.8-4.1,1.5-6.3,2c-17.5,4.5-31.9-4.2-36.3-21.1
						c-6.3-24.5,5.8-45.6,29.5-51.7c17.9-4.6,32.1,3.9,36.5,20.8C356.1,300.2,353,314.1,344.4,324z M320.8,318.7
						c11.8-3,16.2-15.1,13.2-26.6c-2.1-8.1-7.9-11.9-16.2-9.7c-11.8,3-16.5,15-13.5,26.6C306.5,317,312.3,320.9,320.8,318.7z"/>
					<path class="st22" d="M359.7,254.1l18.8-4.9l3.3,41.3c0.5,7.3,4,11.1,11.2,9.3c7.2-1.8,10.2-7.4,9.6-14.6l-3.2-41.3l18.9-4.9
						l3.2,41.3c1.7,20.8-10.5,33.9-27.2,38.3c-16.4,4.2-29.9-2.8-31.4-23.1L359.7,254.1z"/>
					<path class="st22" d="M428.8,236.3l18.9-4.9l5.6,71.2l-19,4.9L428.8,236.3z"/>
					<path class="st22" d="M508.8,231l-25.3,47.4l28.3-7.3l1.4,16L463.6,300l-1.2-15.1l24.9-47.4l-28,7.2l-1.2-16l49.6-12.8
						L508.8,231z"/>
				</g>
				
					<image style="overflow:visible;enable-background:new    ;" width="308" height="237" xlink:href="10C9EB17119864F3.png"  transform="matrix(1 0 0 1 250 183.73)">
				</image>
				<g class="st10">
					<path class="st23" d="M343.6,323.3l15.3,14.9l-22.6,5.8l-8.3-9.7c-2,0.8-4.1,1.5-6.3,2c-17.5,4.5-31.9-4.2-36.3-21.1
						c-6.3-24.5,5.8-45.6,29.5-51.7c17.9-4.6,32.1,3.9,36.5,20.8C355.4,299.4,352.3,313.3,343.6,323.3z M320.1,318
						c11.8-3,16.2-15.1,13.2-26.6c-2.1-8.1-7.9-11.9-16.2-9.7c-11.8,3-16.5,15-13.5,26.6C305.7,316.2,311.6,320.2,320.1,318z"/>
					<path class="st23" d="M359,253.3l18.8-4.9l3.3,41.3c0.5,7.3,4,11.1,11.2,9.3c7.2-1.8,10.2-7.4,9.6-14.6l-3.2-41.3l18.9-4.9
						l3.2,41.3c1.7,20.8-10.5,33.9-27.3,38.3c-16.4,4.2-29.9-2.8-31.4-23.1L359,253.3z"/>
					<path class="st23" d="M428.1,235.5l18.9-4.9l5.6,71.2l-19,4.9L428.1,235.5z"/>
					<path class="st23" d="M508.1,230.3l-25.3,47.4l28.3-7.3l1.4,16l-49.6,12.8l-1.2-15.1l24.9-47.4l-28,7.2l-1.2-16l49.6-12.8
						L508.1,230.3z"/>
				</g>
				
					<radialGradient id="SVGID_7_" cx="465.4315" cy="274.2982" r="20.4647" gradientTransform="matrix(1 0 0 -1 -2.091205e-02 502.0025)" gradientUnits="userSpaceOnUse">
					<stop  offset="8.000000e-02" style="stop-color:#FFFFFF"/>
					<stop  offset="0.11" style="stop-color:#FFF8FF;stop-opacity:0.92"/>
					<stop  offset="0.21" style="stop-color:#FFE5FF;stop-opacity:0.7"/>
					<stop  offset="0.32" style="stop-color:#FFD5FF;stop-opacity:0.52"/>
					<stop  offset="0.42" style="stop-color:#FFC7FF;stop-opacity:0.36"/>
					<stop  offset="0.53" style="stop-color:#FFBCFF;stop-opacity:0.23"/>
					<stop  offset="0.64" style="stop-color:#FFB3FF;stop-opacity:0.13"/>
					<stop  offset="0.75" style="stop-color:#FFADFF;stop-opacity:6.000000e-02"/>
					<stop  offset="0.87" style="stop-color:#FFA9FF;stop-opacity:1.000000e-02"/>
					<stop  offset="1" style="stop-color:#FFA8FF;stop-opacity:0"/>
				</radialGradient>
				<circle class="st24" cx="465.4" cy="227.7" r="20.5"/>
				
					<image style="overflow:visible;enable-background:new    ;" width="485" height="288" xlink:href="10C9EB17119864F1.png"  transform="matrix(1 0 0 1 93 75.73)">
				</image>
				<g class="st10">
					<path class="st22" d="M168.7,212.2c14.3-3.7,22.2,3,23,13.8c0.6,7.9-2.9,15.8-11.3,20.7l14.8,20.2l-17.8,4.6l-13.2-19.3
						l-1.7,0.4l1.7,22.2l-16.1,4.2l-4.6-60.3L168.7,212.2z M168.5,226.5l-7.9,2l1.1,12.6l7.9-2c4.3-1.1,6.3-3.8,6-8
						C175.3,227.4,172.9,225.3,168.5,226.5z"/>
					<path class="st22" d="M237.9,245.8l-20.4,5.3l-2.3,10.6l-16.8,4.3l16.3-65.7l18.5-4.8l25.7,54.9l-16.9,4.4L237.9,245.8z
						 M225.2,216.1l-4.7,21.2l12.3-3.2L225.2,216.1z"/>
					<path class="st22" d="M312.7,175.1l4.7,60.3l-16.1,4.2l-23.8-28.2L280,245l-16.1,4.2l-4.6-60.3l16-4.1l24,28.6l-2.7-34.1
						L312.7,175.1z"/>
					<path class="st22" d="M377.1,189.2c1.4,17.4-9.3,33.2-27.8,38l-22.8,5.9l-4.6-60.3l22.8-5.9
						C363.1,162.1,375.8,171.5,377.1,189.2z M347,212.8c9.2-2.4,14.6-9.4,13.8-19.4c-0.8-10-7-14.1-16.3-11.7l-5.5,1.4l2.3,31.1
						L347,212.8z"/>
					<path class="st22" d="M414.6,210.9c-14.8,3.8-27-3.5-30.7-17.8c-5.3-20.7,4.9-38.6,25-43.8c15.1-3.9,27.2,3.3,30.9,17.6
						C445.1,187.5,435,205.7,414.6,210.9z M413.3,195.4c10-2.6,13.7-12.8,11.2-22.5c-1.8-6.9-6.7-10.1-13.7-8.2
						c-10,2.6-13.9,12.7-11.4,22.5C401.1,193.9,406.1,197.3,413.3,195.4z"/>
					<path class="st22" d="M446.3,140.7l19.4-5l17.6,35.3l11.1-42.7l19.3-5l4.6,60.3l-15.9,4.1l-2.6-33.4l-8.4,36.2L478,194
						l-13.5-30.7l2.6,33.5L451,201L446.3,140.7z"/>
				</g>
				
					<image style="overflow:visible;enable-background:new    ;" width="447" height="253" xlink:href="10C9EB17119864FF.png"  transform="matrix(1 0 0 1 111 92.73)">
				</image>
				<g class="st10">
					<path class="st23" d="M168,211.4c14.3-3.7,22.2,3,23,13.8c0.6,7.9-2.9,15.8-11.3,20.7l14.8,20.2l-17.8,4.6l-13.2-19.3l-1.7,0.4
						l1.7,22.2l-16.1,4.2l-4.6-60.3L168,211.4z M167.7,225.7l-7.9,2l1.1,12.6l7.9-2c4.3-1.1,6.3-3.8,6-8
						C174.5,226.6,172.1,224.6,167.7,225.7z"/>
					<path class="st23" d="M237.2,245.1l-20.4,5.3l-2.3,10.6l-16.8,4.3l16.3-65.7l18.5-4.8l25.7,54.9l-16.9,4.4L237.2,245.1z
						 M224.5,215.4l-4.7,21.2l12.3-3.2L224.5,215.4z"/>
					<path class="st23" d="M311.9,174.3l4.7,60.3l-16.1,4.2l-23.8-28.2l2.6,33.7l-16.1,4.2l-4.6-60.3l16-4.1l24,28.6l-2.7-34.1
						L311.9,174.3z"/>
					<path class="st23" d="M376.3,188.4c1.4,17.4-9.3,33.2-27.8,38l-22.8,5.9l-4.6-60.3l22.8-5.9C362.3,161.4,375,170.7,376.3,188.4
						z M346.2,212c9.2-2.4,14.6-9.4,13.8-19.4c-0.8-10-7-14.1-16.3-11.7l-5.5,1.4l2.3,31.1L346.2,212z"/>
					<path class="st23" d="M413.9,210.2c-14.8,3.8-27-3.5-30.7-17.8c-5.3-20.7,4.9-38.6,25-43.8c15.1-3.9,27.2,3.3,30.9,17.6
						C444.4,186.7,434.2,204.9,413.9,210.2z M412.5,194.7c10-2.6,13.7-12.8,11.2-22.5c-1.8-6.9-6.7-10.1-13.7-8.2
						c-10,2.6-13.9,12.7-11.4,22.5C400.3,193.2,405.3,196.5,412.5,194.7z"/>
					<path class="st23" d="M445.6,139.9l19.4-5l17.6,35.3l11.1-42.7l19.3-5l4.6,60.3l-15.9,4.1l-2.6-33.4l-8.4,36.2l-13.4,3.5
						l-13.5-30.7l2.6,33.5l-16.1,4.2L445.6,139.9z"/>
				</g>
				
					<radialGradient id="SVGID_8_" cx="154.1429" cy="232.3504" r="20.4655" gradientTransform="matrix(1 0 0 -1 7.997173e-03 502.0065)" gradientUnits="userSpaceOnUse">
					<stop  offset="8.000000e-02" style="stop-color:#FFFFFF"/>
					<stop  offset="0.11" style="stop-color:#FFF8FF;stop-opacity:0.92"/>
					<stop  offset="0.21" style="stop-color:#FFE5FF;stop-opacity:0.7"/>
					<stop  offset="0.32" style="stop-color:#FFD5FF;stop-opacity:0.52"/>
					<stop  offset="0.42" style="stop-color:#FFC7FF;stop-opacity:0.36"/>
					<stop  offset="0.53" style="stop-color:#FFBCFF;stop-opacity:0.23"/>
					<stop  offset="0.64" style="stop-color:#FFB3FF;stop-opacity:0.13"/>
					<stop  offset="0.75" style="stop-color:#FFADFF;stop-opacity:6.000000e-02"/>
					<stop  offset="0.87" style="stop-color:#FFA9FF;stop-opacity:1.000000e-02"/>
					<stop  offset="1" style="stop-color:#FFA8FF;stop-opacity:0"/>
				</radialGradient>
				<circle class="st25" cx="154.2" cy="269.7" r="20.5"/>
				
					<radialGradient id="SVGID_9_" cx="475.9651" cy="366.0653" r="20.4647" gradientTransform="matrix(1 0 0 -1 -2.353861e-02 502.0091)" gradientUnits="userSpaceOnUse">
					<stop  offset="8.000000e-02" style="stop-color:#FFFFFF"/>
					<stop  offset="0.11" style="stop-color:#FFF8FF;stop-opacity:0.92"/>
					<stop  offset="0.21" style="stop-color:#FFE5FF;stop-opacity:0.7"/>
					<stop  offset="0.32" style="stop-color:#FFD5FF;stop-opacity:0.52"/>
					<stop  offset="0.42" style="stop-color:#FFC7FF;stop-opacity:0.36"/>
					<stop  offset="0.53" style="stop-color:#FFBCFF;stop-opacity:0.23"/>
					<stop  offset="0.64" style="stop-color:#FFB3FF;stop-opacity:0.13"/>
					<stop  offset="0.75" style="stop-color:#FFADFF;stop-opacity:6.000000e-02"/>
					<stop  offset="0.87" style="stop-color:#FFA9FF;stop-opacity:1.000000e-02"/>
					<stop  offset="1" style="stop-color:#FFA8FF;stop-opacity:0"/>
				</radialGradient>
				<circle class="st26" cx="475.9" cy="135.9" r="20.5"/>
				
					<image style="overflow:visible;enable-background:new    ;" width="331" height="156" xlink:href="10C9EB17119864F2.png"  transform="matrix(1 0 0 1 193 303.73)">
				</image>
				<polyline class="st4" points="490.4,380.7 313.9,426.1 226.6,337 				"/>
				
					<image style="overflow:visible;enable-background:new    ;" width="297" height="122" xlink:href="10C9EB17119864F5.png"  transform="matrix(1 0 0 1 209 319.73)">
				</image>
				<polyline class="st5" points="489.6,379.9 313,425.3 225.8,336.2 				"/>
				
					<image style="overflow:visible;enable-background:new    ;" width="300" height="168" xlink:href="10C9EB17119864F6.png"  transform="matrix(1 0 0 1 186 41.73)">
				</image>
				<polyline class="st4" points="219.5,176.6 235.2,120.3 293,105.5 411.8,74.9 452.7,116.6 				"/>
				
					<image style="overflow:visible;enable-background:new    ;" width="267" height="135" xlink:href="10C9EB17119864F7.png"  transform="matrix(1 0 0 1 202 57.73)">
				</image>
				<polyline class="st5" points="218.7,175.8 234.4,119.5 292.1,104.7 411,74.1 451.9,115.8 				"/>
				
					<image style="overflow:visible;enable-background:new    ;" width="340" height="382" xlink:href="10C9EB17119864CE.png"  transform="matrix(1 0 0 1 171 59.73)">
				</image>
				<polyline class="st27" points="437.3,124.1 406.8,92.9 248.3,133.7 237,174 				"/>
				<polyline class="st27" points="209.3,273.5 204.4,291.2 318.9,408.1 477.3,367.4 				"/>
				
					<image style="overflow:visible;enable-background:new    ;" width="306" height="348" xlink:href="10C9EB17119864C9.png"  transform="matrix(1 0 0 1 187 75.73)">
				</image>
				<polyline class="st28" points="436.5,123.3 406,92.2 247.6,132.9 236.3,173.2 				"/>
				<polyline class="st28" points="208.6,272.7 203.6,290.5 318.1,407.3 476.5,366.6 				"/>
				
					<radialGradient id="SVGID_10_" cx="410.83" cy="427.1" r="20.46" gradientTransform="matrix(1 0 0 -1 0 502)" gradientUnits="userSpaceOnUse">
					<stop  offset="8.000000e-02" style="stop-color:#FFFFFF"/>
					<stop  offset="0.11" style="stop-color:#F5FEFE;stop-opacity:0.92"/>
					<stop  offset="0.21" style="stop-color:#DBFAFC;stop-opacity:0.7"/>
					<stop  offset="0.32" style="stop-color:#C5F7FB;stop-opacity:0.52"/>
					<stop  offset="0.42" style="stop-color:#B2F4F9;stop-opacity:0.36"/>
					<stop  offset="0.53" style="stop-color:#A2F2F8;stop-opacity:0.23"/>
					<stop  offset="0.64" style="stop-color:#96F0F7;stop-opacity:0.13"/>
					<stop  offset="0.75" style="stop-color:#8EEFF7;stop-opacity:6.000000e-02"/>
					<stop  offset="0.87" style="stop-color:#89EEF6;stop-opacity:1.000000e-02"/>
					<stop  offset="1" style="stop-color:#87EEF6;stop-opacity:0"/>
				</radialGradient>
				<circle class="st29" cx="410.8" cy="74.9" r="20.5"/>
				
					<radialGradient id="SVGID_11_" cx="3275.5647" cy="687.9391" r="11.26" gradientTransform="matrix(0.25 0.97 3.21 -0.83 -2592.3601 -2206.46)" gradientUnits="userSpaceOnUse">
					<stop  offset="8.000000e-02" style="stop-color:#FFFFFF"/>
					<stop  offset="0.11" style="stop-color:#F5FEFE;stop-opacity:0.92"/>
					<stop  offset="0.21" style="stop-color:#DBFAFC;stop-opacity:0.7"/>
					<stop  offset="0.32" style="stop-color:#C5F7FB;stop-opacity:0.52"/>
					<stop  offset="0.42" style="stop-color:#B2F4F9;stop-opacity:0.36"/>
					<stop  offset="0.53" style="stop-color:#A2F2F8;stop-opacity:0.23"/>
					<stop  offset="0.64" style="stop-color:#96F0F7;stop-opacity:0.13"/>
					<stop  offset="0.75" style="stop-color:#8EEFF7;stop-opacity:6.000000e-02"/>
					<stop  offset="0.87" style="stop-color:#89EEF6;stop-opacity:1.000000e-02"/>
					<stop  offset="1" style="stop-color:#87EEF6;stop-opacity:0"/>
				</radialGradient>
				<path class="st30" d="M440.6,404.2c-20,5.2-37.4,4.5-39-1.5s13.4-15.1,33.3-20.3s37.4-4.5,39,1.5S460.5,399,440.6,404.2z"/>
				
					<radialGradient id="SVGID_12_" cx="2976.1846" cy="689.4091" r="11.26" gradientTransform="matrix(0.25 0.97 3.21 -0.83 -2592.3601 -2206.46)" gradientUnits="userSpaceOnUse">
					<stop  offset="8.000000e-02" style="stop-color:#FFFFFF"/>
					<stop  offset="0.11" style="stop-color:#FCF9FF;stop-opacity:0.92"/>
					<stop  offset="0.21" style="stop-color:#F4EAFF;stop-opacity:0.7"/>
					<stop  offset="0.32" style="stop-color:#EDDDFF;stop-opacity:0.52"/>
					<stop  offset="0.42" style="stop-color:#E7D1FF;stop-opacity:0.36"/>
					<stop  offset="0.53" style="stop-color:#E2C8FF;stop-opacity:0.23"/>
					<stop  offset="0.64" style="stop-color:#DEC1FF;stop-opacity:0.13"/>
					<stop  offset="0.75" style="stop-color:#DBBCFF;stop-opacity:6.000000e-02"/>
					<stop  offset="0.87" style="stop-color:#DAB9FF;stop-opacity:1.000000e-02"/>
					<stop  offset="1" style="stop-color:#D9B8FF;stop-opacity:0"/>
				</radialGradient>
				<path class="st31" d="M370.2,113.2c-20,5.2-37.4,4.5-39-1.5s13.4-15.1,33.3-20.3s37.4-4.5,39,1.5S390.2,108,370.2,113.2z"/>
				
					<radialGradient id="SVGID_13_" cx="3232.8799" cy="496.31" r="11.26" gradientTransform="matrix(1 0 0 -1 0 502)" gradientUnits="userSpaceOnUse">
					<stop  offset="8.000000e-02" style="stop-color:#FFFFFF"/>
					<stop  offset="0.11" style="stop-color:#FCF9FF;stop-opacity:0.92"/>
					<stop  offset="0.21" style="stop-color:#F4EAFF;stop-opacity:0.7"/>
					<stop  offset="0.32" style="stop-color:#EDDDFF;stop-opacity:0.52"/>
					<stop  offset="0.42" style="stop-color:#E7D1FF;stop-opacity:0.36"/>
					<stop  offset="0.53" style="stop-color:#E2C8FF;stop-opacity:0.23"/>
					<stop  offset="0.64" style="stop-color:#DEC1FF;stop-opacity:0.13"/>
					<stop  offset="0.75" style="stop-color:#DBBCFF;stop-opacity:6.000000e-02"/>
					<stop  offset="0.87" style="stop-color:#DAB9FF;stop-opacity:1.000000e-02"/>
					<stop  offset="1" style="stop-color:#D9B8FF;stop-opacity:0"/>
				</radialGradient>
				<path class="st32" d="M343.7,412.6c-20,5.2-37.4,4.5-39-1.5s13.4-15.1,33.3-20.3s37.4-4.5,39,1.5S363.6,407.5,343.7,412.6z"/>
			</g>
		</g>
	</g>
</g>
</svg>
