<svg id="Layer_1" data-name="Layer 1" xmlns="http://www.w3.org/2000/svg" xmlns:xlink="http://www.w3.org/1999/xlink" viewBox="0 0 750 500"><defs><style>.cls-1,.cls-10,.cls-14,.cls-18,.cls-19,.cls-23,.cls-24,.cls-5,.cls-6,.cls-7,.cls-8,.cls-9{fill:none;}.cls-2{clip-path:url(#clip-path);}.cls-3{opacity:0.7;}.cls-4{isolation:isolate;}.cls-14,.cls-5{stroke:#ffa90f;}.cls-10,.cls-18,.cls-19,.cls-23,.cls-24,.cls-5,.cls-6,.cls-7,.cls-8,.cls-9{stroke-linecap:round;stroke-linejoin:round;}.cls-23,.cls-5,.cls-7,.cls-9{stroke-width:5.83px;}.cls-6{stroke:#fff99d;}.cls-10,.cls-24,.cls-6,.cls-8{stroke-width:2.5px;}.cls-7{stroke:#07f;}.cls-8{stroke:#87eef6;}.cls-18,.cls-9{stroke:#ff00d2;}.cls-10,.cls-19{stroke:#ffa8ff;}.cls-11{fill:url(#radial-gradient);}.cls-12{fill:url(#radial-gradient-2);}.cls-13{fill:#ffa90f;}.cls-14{stroke-miterlimit:10.02;}.cls-14,.cls-19{stroke-width:2.5px;}.cls-15{fill:#fff99d;}.cls-16{fill:url(#radial-gradient-3);}.cls-17{fill:url(#radial-gradient-4);}.cls-18{stroke-width:5.84px;}.cls-20{fill:url(#radial-gradient-5);}.cls-21{fill:url(#radial-gradient-6);}.cls-22{fill:url(#radial-gradient-7);}.cls-23{stroke:#864efd;}.cls-24{stroke:#d9b8ff;}.cls-25{fill:url(#radial-gradient-8);}.cls-26{fill:url(#radial-gradient-9);}.cls-27{fill:url(#radial-gradient-10);}.cls-28{fill:url(#radial-gradient-11);}</style><clipPath id="clip-path"><rect class="cls-1" width="750" height="500"/></clipPath><radialGradient id="radial-gradient" cx="621.13" cy="597.79" r="20.44" gradientTransform="translate(-0.03 -265.99)" gradientUnits="userSpaceOnUse"><stop offset="0.08" stop-color="#fff"/><stop offset="0.11" stop-color="#fdfaff" stop-opacity="0.92"/><stop offset="0.21" stop-color="#faeeff" stop-opacity="0.7"/><stop offset="0.32" stop-color="#f6e3ff" stop-opacity="0.52"/><stop offset="0.42" stop-color="#f3daff" stop-opacity="0.36"/><stop offset="0.53" stop-color="#f1d2ff" stop-opacity="0.23"/><stop offset="0.64" stop-color="#efccff" stop-opacity="0.13"/><stop offset="0.75" stop-color="#eec8ff" stop-opacity="0.06"/><stop offset="0.87" stop-color="#edc6ff" stop-opacity="0.01"/><stop offset="1" stop-color="#edc5ff" stop-opacity="0"/></radialGradient><radialGradient id="radial-gradient-2" cx="549.63" cy="325.45" r="20.45" gradientTransform="translate(-0.03 -266)" gradientUnits="userSpaceOnUse"><stop offset="0.08" stop-color="#fff"/><stop offset="0.11" stop-color="#fffef7" stop-opacity="0.92"/><stop offset="0.21" stop-color="#fffde2" stop-opacity="0.7"/><stop offset="0.32" stop-color="#fffcd0" stop-opacity="0.52"/><stop offset="0.42" stop-color="#fffbc0" stop-opacity="0.36"/><stop offset="0.53" stop-color="#fffab3" stop-opacity="0.23"/><stop offset="0.64" stop-color="#fffaa9" stop-opacity="0.13"/><stop offset="0.75" stop-color="#fff9a3" stop-opacity="0.06"/><stop offset="0.87" stop-color="#fff99e" stop-opacity="0.01"/><stop offset="1" stop-color="#fff99d" stop-opacity="0"/></radialGradient><radialGradient id="radial-gradient-3" cx="397.93" cy="615.75" r="20.48" xlink:href="#radial-gradient-2"/><radialGradient id="radial-gradient-4" cx="156.61" cy="421.21" r="20.44" gradientTransform="translate(-0.01 -266.01)" xlink:href="#radial-gradient-2"/><radialGradient id="radial-gradient-5" cx="465.42" cy="493.7" r="20.47" gradientTransform="translate(-0.02 -266)" gradientUnits="userSpaceOnUse"><stop offset="0.08" stop-color="#fff"/><stop offset="0.11" stop-color="#fff8ff" stop-opacity="0.92"/><stop offset="0.21" stop-color="#ffe5ff" stop-opacity="0.7"/><stop offset="0.32" stop-color="#ffd5ff" stop-opacity="0.52"/><stop offset="0.42" stop-color="#ffc7ff" stop-opacity="0.36"/><stop offset="0.53" stop-color="#ffbcff" stop-opacity="0.23"/><stop offset="0.64" stop-color="#ffb3ff" stop-opacity="0.13"/><stop offset="0.75" stop-color="#ffadff" stop-opacity="0.06"/><stop offset="0.87" stop-color="#ffa9ff" stop-opacity="0.01"/><stop offset="1" stop-color="#ffa8ff" stop-opacity="0"/></radialGradient><radialGradient id="radial-gradient-6" cx="154.14" cy="535.65" r="20.47" gradientTransform="translate(0.01 -265.99)" xlink:href="#radial-gradient-5"/><radialGradient id="radial-gradient-7" cx="475.97" cy="401.93" r="20.46" gradientTransform="translate(-0.02 -265.99)" xlink:href="#radial-gradient-5"/><radialGradient id="radial-gradient-8" cx="410.8" cy="340.9" r="20.47" gradientTransform="translate(0 -266)" gradientUnits="userSpaceOnUse"><stop offset="0.08" stop-color="#fff"/><stop offset="0.11" stop-color="#f5fefe" stop-opacity="0.92"/><stop offset="0.21" stop-color="#dbfafc" stop-opacity="0.7"/><stop offset="0.32" stop-color="#c5f7fb" stop-opacity="0.52"/><stop offset="0.42" stop-color="#b2f4f9" stop-opacity="0.36"/><stop offset="0.53" stop-color="#a2f2f8" stop-opacity="0.23"/><stop offset="0.64" stop-color="#96f0f7" stop-opacity="0.13"/><stop offset="0.75" stop-color="#8eeff7" stop-opacity="0.06"/><stop offset="0.87" stop-color="#89eef6" stop-opacity="0.01"/><stop offset="1" stop-color="#87eef6" stop-opacity="0"/></radialGradient><radialGradient id="radial-gradient-9" cx="3302.1" cy="-82.65" r="11.26" gradientTransform="matrix(0.25, 0.97, -3.21, 0.83, -656.01, -2734.59)" xlink:href="#radial-gradient-8"/><radialGradient id="radial-gradient-10" cx="3002.72" cy="-84.12" r="11.26" gradientTransform="matrix(0.25, 0.97, -3.21, 0.83, -656.01, -2734.59)" gradientUnits="userSpaceOnUse"><stop offset="0.08" stop-color="#fff"/><stop offset="0.11" stop-color="#fcf9ff" stop-opacity="0.92"/><stop offset="0.21" stop-color="#f4eaff" stop-opacity="0.7"/><stop offset="0.32" stop-color="#edddff" stop-opacity="0.52"/><stop offset="0.42" stop-color="#e7d1ff" stop-opacity="0.36"/><stop offset="0.53" stop-color="#e2c8ff" stop-opacity="0.23"/><stop offset="0.64" stop-color="#dec1ff" stop-opacity="0.13"/><stop offset="0.75" stop-color="#dbbcff" stop-opacity="0.06"/><stop offset="0.87" stop-color="#dab9ff" stop-opacity="0.01"/><stop offset="1" stop-color="#d9b8ff" stop-opacity="0"/></radialGradient><radialGradient id="radial-gradient-11" cx="3232.88" cy="271.69" r="11.26" gradientTransform="translate(0 -266)" xlink:href="#radial-gradient-10"/></defs><title>logo</title><g id="OBJECTS"><g class="cls-2"><g class="cls-3"><image class="cls-4" width="602" height="442" transform="translate(69.24 61.41)" xlink:href="6F280D45D00B09A2.png"/></g><image class="cls-4" width="93" height="95" transform="translate(538.25 346.48) scale(0.99)" xlink:href="6F280D45D00B09A6.png"/><line class="cls-5" x1="580.1" y1="380.3" x2="588.8" y2="406.8"/><line class="cls-5" x1="597.7" y1="389.2" x2="571.1" y2="397.9"/><image class="cls-4" width="60" height="61" transform="translate(554.25 362.48) scale(0.99)" xlink:href="6F280D45D00B09A1.png"/><line class="cls-6" x1="579.3" y1="379.5" x2="588" y2="406.1"/><line class="cls-6" x1="596.9" y1="388.4" x2="570.4" y2="397.1"/><image class="cls-4" width="75" height="76" transform="translate(509.25 335.48) scale(0.99)" xlink:href="6F280D45D00B09A3.png"/><path class="cls-7" d="M550.5,373.1a4.12,4.12,0,0,1-4.1,4.1,4.19,4.19,0,0,1-4.1-4.1,4.1,4.1,0,0,1,8.2,0Z"/><image class="cls-4" width="42" height="42" transform="translate(525.25 351.48) scale(0.99)" xlink:href="6F280D45D00B09A0.png"/><circle class="cls-8" cx="545.6" cy="372.4" r="4.1"/><image class="cls-4" width="90" height="91" transform="translate(574.25 298.48) scale(0.99)" xlink:href="6F280D45D00B09AE.png"/><circle class="cls-9" cx="618.8" cy="343.7" r="11.9"/><image class="cls-4" width="58" height="58" transform="translate(589.25 314.48) scale(0.99)" xlink:href="6F280D45D00B09A5.png"/><circle class="cls-10" cx="618.1" cy="343.1" r="11.9"/><image class="cls-4" width="75" height="76" transform="translate(536.25 393.48) scale(0.99)" xlink:href="6F280D45D00B09A7.png"/><path class="cls-9" d="M577.3,430.9a4.1,4.1,0,1,1-4.1-4.1h0a4.06,4.06,0,0,1,4.1,4.1Z"/><image class="cls-4" width="41" height="42" transform="translate(552.25 409.48) scale(0.99)" xlink:href="6F280D45D00B09A4.png"/><path class="cls-10" d="M576.5,430.1a4.1,4.1,0,1,1-4.1-4.1h0A4.12,4.12,0,0,1,576.5,430.1Z"/><circle class="cls-11" cx="621.1" cy="331.8" r="20.5"/><circle class="cls-12" cx="549.6" cy="59.5" r="20.5"/><image class="cls-4" width="256" height="149" transform="translate(362.22 264.36)" xlink:href="10C9EB17119864B5.png"/><g class="cls-4"><path class="cls-13" d="M408.5,363.7l-7,1.8L397,347.9l6.7-1.7c3.7-1,6.2.6,6.9,3.1a4.4,4.4,0,0,1-1.9,4.8,4.38,4.38,0,0,1,4.5,3.4C413.7,360.1,412.1,362.7,408.5,363.7ZM404,348.6l-3.6.9,1.3,5,3.6-.9c1.9-.5,2.8-1.7,2.4-3.3S405.8,348.1,404,348.6Zm2.1,7.3-3.8,1,1.4,5.5,3.9-1c1.9-.5,2.9-1.8,2.4-3.5S408,355.4,406.1,355.9Z"/><path class="cls-13" d="M413.8,343.5l3.2-.8,6.3,7.6,1.8-9.7,3.2-.8-2.9,12.7,1.6,6.4-2.9.7-1.6-6.4Z"/><path class="cls-13" d="M449,334.5l2.9-.8,3.3,12.7c.8,3.2-.8,5.6-3.9,6.4a5,5,0,0,1-6.5-3.7l2.9-.7c.4,1.5,1.4,2.3,2.9,1.9s2-1.6,1.6-3.1Z"/><path class="cls-13" d="M471.7,347.6a9.29,9.29,0,1,1,6.7-11.3A9.06,9.06,0,0,1,471.7,347.6Zm-.7-2.5c3.5-.9,5.4-4.1,4.3-8s-4.2-5.8-7.7-4.9-5.4,4-4.4,8S467.5,346,471,345.1Z"/><path class="cls-13" d="M491.8,342.4c-3.5.9-6.7-.3-7.5-3.4l3.1-.8a2.92,2.92,0,0,0,3.8,1.8c2-.5,2.9-1.9,2.5-3.4-1.1-4.2-9.7.9-11.4-5.6-.8-3.1,1.2-5.6,4.8-6.6,3.4-.9,6.2.3,7.2,3.2l-3.2.8c-.4-1.2-1.7-2-3.6-1.6-1.7.4-2.8,1.5-2.3,3.2,1,4,9.7-.9,11.3,5.5C497.2,338.3,495.7,341.4,491.8,342.4Z"/><path class="cls-13" d="M509.5,321.4l-6.8,1.8,1.3,5.2,6.1-1.6.6,2.4-6.1,1.6,1.4,5.4,6.8-1.8.6,2.4-9.7,2.5-4.5-17.6,9.7-2.5Z"/><path class="cls-13" d="M524.3,319.2a1.88,1.88,0,1,0-3.7.7c.2,1,1,1.6,2.6,2.6l5.8,3.4,1-3.4,3.1-.8-1.3,4.5a5.64,5.64,0,0,1-.4,1.2l5.4,3.1-3.8,1-2.7-1.6a8.94,8.94,0,0,1-5.4,4.1c-3.8,1-6.9-.5-7.7-3.8-.6-2.4.2-4.7,2.7-6.6a4.85,4.85,0,0,1-2.2-3c-.6-2.3.8-4.5,3.8-5.3s5.2.7,5.6,3.2Zm3.7,9.3-5.9-3.5c-1.8,1.3-2.5,2.8-2.1,4.4s2.1,2.7,4.2,2.1A5.7,5.7,0,0,0,528,328.5Z"/><path class="cls-13" d="M536.7,311.9l2.9-.7,4.5,17.6-2.9.7Z"/><path class="cls-13" d="M552,307.9c4.2-1.1,6.8.8,7.6,3.7a5.2,5.2,0,0,1-2.8,6.1l6.2,6.2-3.4.9-5.9-6-2.2.6,1.8,7-2.9.7-4.5-17.6Zm.6,2.4-3.2.8,1.5,5.9,3.2-.8c2.2-.6,2.9-2.1,2.5-3.8S554.9,309.7,552.6,310.3Z"/><path class="cls-13" d="M574.8,304.5l-6.8,1.8,1.3,5.2,6.1-1.6.6,2.4-6.1,1.6,1.4,5.4,6.8-1.8.6,2.4-9.7,2.5-4.5-17.6,9.7-2.5Z"/></g><g class="cls-4"><path class="cls-14" d="M408.5,363.7l-7,1.8L397,347.9l6.7-1.7c3.7-1,6.2.6,6.9,3.1a4.4,4.4,0,0,1-1.9,4.8,4.38,4.38,0,0,1,4.5,3.4C413.7,360.1,412.1,362.7,408.5,363.7ZM404,348.6l-3.6.9,1.3,5,3.6-.9c1.9-.5,2.8-1.7,2.4-3.3S405.8,348.1,404,348.6Zm2.1,7.3-3.8,1,1.4,5.5,3.9-1c1.9-.5,2.9-1.8,2.4-3.5S408,355.4,406.1,355.9Z"/><path class="cls-14" d="M413.8,343.5l3.2-.8,6.3,7.6,1.8-9.7,3.2-.8-2.9,12.7,1.6,6.4-2.9.7-1.6-6.4Z"/><path class="cls-14" d="M449,334.5l2.9-.8,3.3,12.7c.8,3.2-.8,5.6-3.9,6.4a5,5,0,0,1-6.5-3.7l2.9-.7c.4,1.5,1.4,2.3,2.9,1.9s2-1.6,1.6-3.1Z"/><path class="cls-14" d="M471.7,347.6a9.29,9.29,0,1,1,6.7-11.3A9.06,9.06,0,0,1,471.7,347.6Zm-.7-2.5c3.5-.9,5.4-4.1,4.3-8s-4.2-5.8-7.7-4.9-5.4,4-4.4,8S467.5,346,471,345.1Z"/><path class="cls-14" d="M491.8,342.4c-3.5.9-6.7-.3-7.5-3.4l3.1-.8a2.92,2.92,0,0,0,3.8,1.8c2-.5,2.9-1.9,2.5-3.4-1.1-4.2-9.7.9-11.4-5.6-.8-3.1,1.2-5.6,4.8-6.6,3.4-.9,6.2.3,7.2,3.2l-3.2.8c-.4-1.2-1.7-2-3.6-1.6-1.7.4-2.8,1.5-2.3,3.2,1,4,9.7-.9,11.3,5.5C497.2,338.3,495.7,341.4,491.8,342.4Z"/><path class="cls-14" d="M509.5,321.4l-6.8,1.8,1.3,5.2,6.1-1.6.6,2.4-6.1,1.6,1.4,5.4,6.8-1.8.6,2.4-9.7,2.5-4.5-17.6,9.7-2.5Z"/><path class="cls-14" d="M524.3,319.2a1.88,1.88,0,1,0-3.7.7c.2,1,1,1.6,2.6,2.6l5.8,3.4,1-3.4,3.1-.8-1.3,4.5a5.64,5.64,0,0,1-.4,1.2l5.4,3.1-3.8,1-2.7-1.6a8.94,8.94,0,0,1-5.4,4.1c-3.8,1-6.9-.5-7.7-3.8-.6-2.4.2-4.7,2.7-6.6a4.85,4.85,0,0,1-2.2-3c-.6-2.3.8-4.5,3.8-5.3s5.2.7,5.6,3.2Zm3.7,9.3-5.9-3.5c-1.8,1.3-2.5,2.8-2.1,4.4s2.1,2.7,4.2,2.1A5.7,5.7,0,0,0,528,328.5Z"/><path class="cls-14" d="M536.7,311.9l2.9-.7,4.5,17.6-2.9.7Z"/><path class="cls-14" d="M552,307.9c4.2-1.1,6.8.8,7.6,3.7a5.2,5.2,0,0,1-2.8,6.1l6.2,6.2-3.4.9-5.9-6-2.2.6,1.8,7-2.9.7-4.5-17.6Zm.6,2.4-3.2.8,1.5,5.9,3.2-.8c2.2-.6,2.9-2.1,2.5-3.8S554.9,309.7,552.6,310.3Z"/><path class="cls-14" d="M574.8,304.5l-6.8,1.8,1.3,5.2,6.1-1.6.6,2.4-6.1,1.6,1.4,5.4,6.8-1.8.6,2.4-9.7,2.5-4.5-17.6,9.7-2.5Z"/></g><image class="cls-4" width="223" height="116" transform="translate(378.2 280.34)" xlink:href="10C9EB17119864CB.png"/><g class="cls-4"><path class="cls-15" d="M407.6,362.8l-7,1.8L396.1,347l6.7-1.7c3.7-1,6.2.6,6.9,3.1a4.4,4.4,0,0,1-1.9,4.8,4.38,4.38,0,0,1,4.5,3.4C412.9,359.2,411.2,361.9,407.6,362.8Zm-4.5-15.1-3.6.9,1.3,5,3.6-.9c1.9-.5,2.8-1.7,2.4-3.3S405,347.2,403.1,347.7Zm2.2,7.3-3.8,1,1.4,5.5,3.9-1c1.9-.5,2.9-1.8,2.4-3.5S407.2,354.5,405.3,355Z"/><path class="cls-15" d="M413,342.7l3.2-.8,6.3,7.6,1.8-9.7,3.2-.8-2.9,12.7,1.6,6.4-2.9.7-1.6-6.4Z"/><path class="cls-15" d="M448.1,333.6l2.9-.8,3.3,12.7c.8,3.2-.8,5.6-3.9,6.4a5,5,0,0,1-6.5-3.7l2.9-.8c.4,1.5,1.4,2.3,2.9,1.9s2-1.6,1.6-3.1Z"/><path class="cls-15" d="M470.8,346.7a9.29,9.29,0,1,1,6.7-11.3A9.06,9.06,0,0,1,470.8,346.7Zm-.6-2.5c3.5-.9,5.4-4.1,4.3-8s-4.2-5.8-7.7-4.9-5.4,4-4.4,8S466.7,345.1,470.2,344.2Z"/><path class="cls-15" d="M491,341.5c-3.5.9-6.7-.3-7.5-3.4l3.1-.8a2.92,2.92,0,0,0,3.8,1.8c2-.5,2.9-1.9,2.5-3.4-1.1-4.2-9.7.9-11.4-5.6-.8-3.1,1.2-5.6,4.8-6.6,3.4-.9,6.2.3,7.2,3.2l-3.2.8c-.4-1.2-1.7-2-3.6-1.6-1.7.4-2.8,1.5-2.3,3.2,1,4,9.7-.9,11.3,5.5C496.4,337.4,494.9,340.5,491,341.5Z"/><path class="cls-15" d="M508.7,320.5l-6.8,1.8,1.3,5.2,6.1-1.6.6,2.4-6.1,1.6,1.4,5.4,6.8-1.8.6,2.4-9.7,2.5-4.5-17.6,9.7-2.5Z"/><path class="cls-15" d="M523.5,318.4a1.88,1.88,0,1,0-3.7.7c.2,1,1,1.6,2.6,2.6l5.8,3.4,1-3.4,3.1-.8-1.3,4.5a5.64,5.64,0,0,1-.4,1.2l5.4,3.1-3.8,1-2.7-1.6a8.94,8.94,0,0,1-5.4,4.1c-3.8,1-6.9-.5-7.7-3.8-.6-2.4.2-4.7,2.7-6.6a4.85,4.85,0,0,1-2.2-3c-.6-2.3.8-4.5,3.8-5.3s5.2.7,5.6,3.2Zm3.6,9.2-5.9-3.5c-1.8,1.3-2.5,2.8-2.1,4.4s2.1,2.7,4.2,2.1A5.3,5.3,0,0,0,527.1,327.6Z"/><path class="cls-15" d="M535.9,311l2.9-.7,4.5,17.6-2.9.7Z"/><path class="cls-15" d="M551.2,307c4.2-1.1,6.8.8,7.6,3.7a5.2,5.2,0,0,1-2.8,6.1l6.2,6.2-3.4.9-5.9-6-2.2.6,1.8,7-2.9.7-4.5-17.6Zm.6,2.4-3.2.8,1.5,5.9,3.2-.8c2.2-.6,2.9-2.1,2.5-3.8S554,308.8,551.8,309.4Z"/><path class="cls-15" d="M573.9,303.7l-6.8,1.8,1.3,5.2,6.1-1.6.6,2.4-6.1,1.6,1.4,5.4,6.8-1.8.6,2.4-9.7,2.5L563.6,304l9.7-2.5Z"/></g><circle class="cls-16" cx="397.9" cy="349.7" r="20.5"/><image class="cls-4" width="93" height="95" transform="translate(124.25 104.48) scale(0.99)" xlink:href="10C9EB17119864CD.png"/><line class="cls-5" x1="166.1" y1="138.4" x2="174.8" y2="165"/><line class="cls-5" x1="183.7" y1="147.3" x2="157.1" y2="156"/><image class="cls-4" width="60" height="61" transform="translate(140.25 120.48) scale(0.99)" xlink:href="10C9EB17119864CF.png"/><line class="cls-6" x1="165.3" y1="137.6" x2="174" y2="164.2"/><line class="cls-6" x1="183" y1="146.6" x2="156.4" y2="155.3"/><image class="cls-4" width="91" height="92" transform="translate(77.25 58.48) scale(0.99)" xlink:href="10C9EB17119864CC.png"/><circle class="cls-7" cx="122.2" cy="103.9" r="12.2"/><image class="cls-4" width="57" height="59" transform="translate(93.25 73.49) scale(0.99)" xlink:href="10C9EB17119864D4.png"/><circle class="cls-8" cx="121.5" cy="103.1" r="12.2"/><image class="cls-4" width="75" height="76" transform="translate(98.25 145.48) scale(0.99)" xlink:href="10C9EB17119864D5.png"/><path class="cls-7" d="M139.4,183.1a4.1,4.1,0,1,1-4.1-4.1h0A4.12,4.12,0,0,1,139.4,183.1Z"/><image class="cls-4" width="41" height="42" transform="translate(114.25 161.48) scale(0.99)" xlink:href="10C9EB17119864D7.png"/><circle class="cls-8" cx="134.5" cy="182.4" r="4.1"/><image class="cls-4" width="75" height="76" transform="translate(152.25 60.48) scale(0.99)" xlink:href="10C9EB17119864D3.png"/><circle class="cls-9" cx="189.1" cy="98.2" r="4.1"/><image class="cls-4" width="42" height="43" transform="translate(167.25 76.48) scale(0.99)" xlink:href="10C9EB17119864DB.png"/><path class="cls-10" d="M192.4,97.4a4.1,4.1,0,1,1-4.1-4.1h0A4.06,4.06,0,0,1,192.4,97.4Z"/><circle class="cls-17" cx="156.6" cy="155.2" r="20.5"/><image class="cls-4" width="344" height="273" transform="translate(233.24 166.42)" xlink:href="10C9EB17119864F0.png"/><g class="cls-4"><path class="cls-18" d="M344.4,324l15.3,14.9-22.6,5.8-8.3-9.7a42.1,42.1,0,0,1-6.3,2c-17.5,4.5-31.9-4.2-36.3-21.1-6.3-24.5,5.8-45.6,29.5-51.7,17.9-4.6,32.1,3.9,36.5,20.8C356.1,300.2,353,314.1,344.4,324Zm-23.6-5.3c11.8-3,16.2-15.1,13.2-26.6-2.1-8.1-7.9-11.9-16.2-9.7-11.8,3-16.5,15-13.5,26.6C306.5,317,312.3,320.9,320.8,318.7Z"/><path class="cls-18" d="M359.7,254.1l18.8-4.9,3.3,41.3c.5,7.3,4,11.1,11.2,9.3s10.2-7.4,9.6-14.6l-3.2-41.3,18.9-4.9,3.2,41.3c1.7,20.8-10.5,33.9-27.2,38.3-16.4,4.2-29.9-2.8-31.4-23.1Z"/><path class="cls-18" d="M428.8,236.3l18.9-4.9,5.6,71.2-19,4.9Z"/><path class="cls-18" d="M508.8,231l-25.3,47.4,28.3-7.3,1.4,16L463.6,300l-1.2-15.1,24.9-47.4-28,7.2-1.2-16,49.6-12.8Z"/></g><image class="cls-4" width="308" height="238" transform="translate(250.24 183.42)" xlink:href="10C9EB17119864F3.png"/><g class="cls-4"><path class="cls-19" d="M343.6,323.3l15.3,14.9L336.3,344l-8.3-9.7a42.1,42.1,0,0,1-6.3,2c-17.5,4.5-31.9-4.2-36.3-21.1-6.3-24.5,5.8-45.6,29.5-51.7,17.9-4.6,32.1,3.9,36.5,20.8C355.4,299.4,352.3,313.3,343.6,323.3ZM320.1,318c11.8-3,16.2-15.1,13.2-26.6-2.1-8.1-7.9-11.9-16.2-9.7-11.8,3-16.5,15-13.5,26.6C305.7,316.2,311.6,320.2,320.1,318Z"/><path class="cls-19" d="M359,253.3l18.8-4.9,3.3,41.3c.5,7.3,4,11.1,11.2,9.3s10.2-7.4,9.6-14.6l-3.2-41.3,18.9-4.9,3.2,41.3c1.7,20.8-10.5,33.9-27.3,38.3-16.4,4.2-29.9-2.8-31.4-23.1Z"/><path class="cls-19" d="M428.1,235.5l18.9-4.9,5.6,71.2-19,4.9Z"/><path class="cls-19" d="M508.1,230.3l-25.3,47.4,28.3-7.3,1.4,16-49.6,12.8-1.2-15.1,24.9-47.4-28,7.2-1.2-16L507,215.1Z"/></g><circle class="cls-20" cx="465.4" cy="227.7" r="20.5"/><image class="cls-4" width="485" height="289" transform="translate(93.22 75.36)" xlink:href="10C9EB17119864F1.png"/><g class="cls-4"><path class="cls-18" d="M168.7,212.2c14.3-3.7,22.2,3,23,13.8.6,7.9-2.9,15.8-11.3,20.7l14.8,20.2-17.8,4.6-13.2-19.3-1.7.4,1.7,22.2L148.1,279l-4.6-60.3Zm-.2,14.3-7.9,2,1.1,12.6,7.9-2c4.3-1.1,6.3-3.8,6-8C175.3,227.4,172.9,225.3,168.5,226.5Z"/><path class="cls-18" d="M237.9,245.8l-20.4,5.3-2.3,10.6L198.4,266l16.3-65.7,18.5-4.8,25.7,54.9L242,254.8Zm-12.7-29.7-4.7,21.2,12.3-3.2Z"/><path class="cls-18" d="M312.7,175.1l4.7,60.3-16.1,4.2-23.8-28.2L280,245l-16.1,4.2-4.6-60.3,16-4.1,24,28.6-2.7-34.1Z"/><path class="cls-18" d="M377.1,189.2c1.4,17.4-9.3,33.2-27.8,38l-22.8,5.9-4.6-60.3,22.8-5.9C363.1,162.1,375.8,171.5,377.1,189.2ZM347,212.8c9.2-2.4,14.6-9.4,13.8-19.4s-7-14.1-16.3-11.7l-5.5,1.4,2.3,31.1Z"/><path class="cls-18" d="M414.6,210.9c-14.8,3.8-27-3.5-30.7-17.8-5.3-20.7,4.9-38.6,25-43.8,15.1-3.9,27.2,3.3,30.9,17.6C445.1,187.5,435,205.7,414.6,210.9Zm-1.3-15.5c10-2.6,13.7-12.8,11.2-22.5-1.8-6.9-6.7-10.1-13.7-8.2-10,2.6-13.9,12.7-11.4,22.5C401.1,193.9,406.1,197.3,413.3,195.4Z"/><path class="cls-18" d="M446.3,140.7l19.4-5L483.3,171l11.1-42.7,19.3-5,4.6,60.3-15.9,4.1-2.6-33.4-8.4,36.2L478,194l-13.5-30.7,2.6,33.5L451,201Z"/></g><image class="cls-4" width="447" height="254" transform="translate(111.21 92.35)" xlink:href="10C9EB17119864FF.png"/><g class="cls-4"><path class="cls-19" d="M168,211.4c14.3-3.7,22.2,3,23,13.8.6,7.9-2.9,15.8-11.3,20.7l14.8,20.2-17.8,4.6-13.2-19.3-1.7.4,1.7,22.2-16.1,4.2-4.6-60.3Zm-.3,14.3-7.9,2,1.1,12.6,7.9-2c4.3-1.1,6.3-3.8,6-8C174.5,226.6,172.1,224.6,167.7,225.7Z"/><path class="cls-19" d="M237.2,245.1l-20.4,5.3L214.5,261l-16.8,4.3L214,199.6l18.5-4.8,25.7,54.9-16.9,4.4Zm-12.7-29.7-4.7,21.2,12.3-3.2Z"/><path class="cls-19" d="M311.9,174.3l4.7,60.3-16.1,4.2-23.8-28.2,2.6,33.7-16.1,4.2-4.6-60.3,16-4.1,24,28.6-2.7-34.1Z"/><path class="cls-19" d="M376.3,188.4c1.4,17.4-9.3,33.2-27.8,38l-22.8,5.9L321.1,172l22.8-5.9C362.3,161.4,375,170.7,376.3,188.4ZM346.2,212c9.2-2.4,14.6-9.4,13.8-19.4s-7-14.1-16.3-11.7l-5.5,1.4,2.3,31.1Z"/><path class="cls-19" d="M413.9,210.2c-14.8,3.8-27-3.5-30.7-17.8-5.3-20.7,4.9-38.6,25-43.8,15.1-3.9,27.2,3.3,30.9,17.6C444.4,186.7,434.2,204.9,413.9,210.2Zm-1.4-15.5c10-2.6,13.7-12.8,11.2-22.5-1.8-6.9-6.7-10.1-13.7-8.2-10,2.6-13.9,12.7-11.4,22.5C400.3,193.2,405.3,196.5,412.5,194.7Z"/><path class="cls-19" d="M445.6,139.9l19.4-5,17.6,35.3,11.1-42.7,19.3-5,4.6,60.3-15.9,4.1-2.6-33.4-8.4,36.2-13.4,3.5-13.5-30.7,2.6,33.5-16.1,4.2Z"/></g><circle class="cls-21" cx="154.2" cy="269.7" r="20.5"/><circle class="cls-22" cx="475.9" cy="135.9" r="20.5"/><image class="cls-4" width="331" height="157" transform="translate(193.19 303.32)" xlink:href="10C9EB17119864F2.png"/><polyline class="cls-7" points="490.4 380.7 313.9 426.1 226.6 337"/><image class="cls-4" width="297" height="123" transform="translate(209.18 319.3)" xlink:href="10C9EB17119864F5.png"/><polyline class="cls-8" points="489.6 379.9 313 425.3 225.8 336.2"/><image class="cls-4" width="300" height="169" transform="translate(186.21 41.35)" xlink:href="10C9EB17119864F6.png"/><polyline class="cls-7" points="219.5 176.6 235.2 120.3 293 105.5 411.8 74.9 452.7 116.6"/><image class="cls-4" width="267" height="136" transform="translate(202.2 57.33)" xlink:href="10C9EB17119864F7.png"/><polyline class="cls-8" points="218.7 175.8 234.4 119.5 292.1 104.7 411 74.1 451.9 115.8"/><image class="cls-4" width="340" height="383" transform="translate(171.25 59.51)" xlink:href="10C9EB17119864CE.png"/><polyline class="cls-23" points="437.3 124.1 406.8 92.9 248.3 133.7 237 174"/><polyline class="cls-23" points="209.3 273.5 204.4 291.2 318.9 408.1 477.3 367.4"/><image class="cls-4" width="306" height="349" transform="translate(187.25 75.51)" xlink:href="10C9EB17119864C9.png"/><polyline class="cls-24" points="436.5 123.3 406 92.2 247.6 132.9 236.3 173.2"/><polyline class="cls-24" points="208.6 272.7 203.6 290.5 318.1 407.3 476.5 366.6"/><circle class="cls-25" cx="410.8" cy="74.9" r="20.5"/><path class="cls-26" d="M440.6,404.2c-20,5.2-37.4,4.5-39-1.5s13.4-15.1,33.3-20.3,37.4-4.5,39,1.5S460.5,399,440.6,404.2Z"/><path class="cls-27" d="M370.2,113.2c-20,5.2-37.4,4.5-39-1.5s13.4-15.1,33.3-20.3,37.4-4.5,39,1.5S390.2,108,370.2,113.2Z"/><path class="cls-28" d="M343.7,412.6c-20,5.2-37.4,4.5-39-1.5S318.1,396,338,390.8s37.4-4.5,39,1.5S363.6,407.5,343.7,412.6Z"/></g></g></svg>